<svg width="313" height="512.52" xmlns="http://www.w3.org/2000/svg" clip-rule="evenodd" fill-rule="evenodd" image-rendering="optimizeQuality" text-rendering="geometricPrecision" shape-rendering="geometricPrecision">
    <g>
        <title>Layer 1</title>
        <rect fill="#ffffff" id="svg_5" height="270.00001" width="209" y="143.73999" x="52.5" stroke-width="0.5"/>
        <path id="svg_1" d="m42.3,110.94c2.22,24.11 2.48,51.07 1.93,79.75c-13.76,0.05 -24.14,1.44 -32.95,6.69c-4.96,2.96 -8.38,6.28 -10.42,12.15c-1.37,4.3 -0.36,7.41 2.31,8.48c4.52,1.83 22.63,-0.27 28.42,-1.54c2.47,-0.54 4.53,-1.28 5.44,-2.33c0.55,-0.63 1,-1.4 1.35,-2.31c1.49,-3.93 0.23,-8.44 3.22,-12.08c0.73,-0.88 1.55,-1.37 2.47,-1.61c-1.46,62.21 -6.21,131.9 -2.88,197.88c0,43.41 1,71.27 43.48,97.95c41.46,26.04 117.93,25.22 155.25,-8.41c32.44,-29.23 30.38,-50.72 30.38,-89.54c5.44,-70.36 1.21,-134.54 -0.79,-197.69c0.69,0.28 1.32,0.73 1.89,1.42c2.99,3.64 1.73,8.15 3.22,12.08c0.35,0.91 0.8,1.68 1.35,2.31c0.91,1.05 2.97,1.79 5.44,2.33c5.79,1.27 23.9,3.37 28.42,1.54c2.67,-1.07 3.68,-4.18 2.31,-8.48c-2.04,-5.87 -5.46,-9.19 -10.42,-12.15c-8.7,-5.18 -18.93,-6.6 -32.44,-6.69c-0.75,-25.99 -1.02,-51.83 -0.01,-77.89c6.25,-161.12 -239.53,-138.25 -226.97,-1.86zm28.99,277.28l8.44,-24.14c53.79,8.36 109.74,7.72 154.36,-0.15l7.61,22.8c-60.18,28.95 -107.37,32.1 -170.41,1.49zm185.26,-34.13c5.86,-34.1 4.8,-86.58 -1.99,-120.61c-12.64,47.63 -9.76,74.51 1.99,120.61zm-186.37,-115.26l-10.34,-47.2c45.37,-57.48 148.38,-53.51 193.32,0l-12.93,47.2c-57.58,-14.37 -114.19,-13.21 -170.05,0zm-13.73,115.26c-5.86,-34.1 -4.8,-86.58 1.99,-120.61c12.63,47.63 9.76,74.51 -1.99,120.61z" stroke-miterlimit="22.926" stroke-width="0.5" stroke="#000"/>
    </g>
</svg>